{"title":"Life of Pi (English) 2012 BDRip","uid":8269246,"size":4907474944,"categoryP":"video","categoryS":"movies","magnet":"?xt=urn:btih:c794ffb6b1bce06aa6b6ab1a540f102dcee948b8&amp;dn=Life+of+Pi+%28English%29+2012+BDRip&amp;tr=udp%3A%2F%2Ftracker.openbittorrent.com%3A80&amp;tr=udp%3A%2F%2Fopen.demonii.com%3A1337&amp;tr=udp%3A%2F%2Ftracker.coppersurfer.tk%3A6969&amp;tr=udp%3A%2F%2Fexodus.desync.com%3A6969","seeders":1,"leechers":1,"uploader":"grn2012","files":-1,"time":1363568359,"description":"General\nFormat                                   : MPEG-PS\nFile size                                : 4.57 GiB\nDuration                                 : 2h 6mn\nOverall bit rate mode                    : Variable\nOverall bit rate                         : 5 158 Kbps\n\nVideo\nID                                       : 224 (0xE0)\nFormat                                   : MPEG Video\nFormat version                           : Version 2\nFormat profile                           : Main@Main\nFormat settings, BVOP                    : Yes\nFormat settings, Matrix                  : Custom\nDuration                                 : 2h 6mn\nBit rate mode                            : Variable\nBit rate                                 : 4 607 Kbps\nMaximum bit rate                         : 9 800 Kbps\nWidth                                    : 720 pixels\nHeight                                   : 480 pixels\nDisplay aspect ratio                     : 16:9\nFrame rate                               : 23.976 fps\nStandard                                 : Component\nColor space                              : YUV\nChroma subsampling                       : 4:2:0\nBit depth                                : 8 bits\nScan type                                : Progressive\nScan order                               : 2:3 Pulldown\nCompression mode                         : Lossy\nBits/(Pixel*Frame)                       : 0.556\nStream size                              : 4.08 GiB (89%)\nColor primaries                          : BT.601 NTSC\nTransfer characteristics                 : BT.601\nMatrix coefficients                      : BT.601\n\nAudio\nID                                       : 189 (0xBD)-128 (0x80)\nFormat                                   : AC-3\nFormat/Info                              : Audio Coding 3\nMode extension                           : CM (complete main)\nFormat settings, Endianness              : Big\nMuxing mode                              : DVD-Video\nDuration                                 : 2h 6mn\nBit rate mode                            : Constant\nBit rate                                 : 448 Kbps\nChannel(s)                               : 6 channels\nChannel positions                        : Front: L C R, Side: L R, LFE\nSampling rate                            : 48.0 KHz\nBit depth                                : 16 bits\nCompression mode                         : Lossy\nDelay relative to video                  : -34ms\nStream size                              : 406 MiB (9%)","torrent":{"xt":"urn:btih:c794ffb6b1bce06aa6b6ab1a540f102dcee948b8","amp;dn":"Life+of+Pi+%28English%29+2012+BDRip","amp;tr":["udp%3A%2F%2Ftracker.openbittorrent.com%3A80","udp%3A%2F%2Fopen.demonii.com%3A1337","udp%3A%2F%2Ftracker.coppersurfer.tk%3A6969","udp%3A%2F%2Fexodus.desync.com%3A6969"],"infoHash":"c794ffb6b1bce06aa6b6ab1a540f102dcee948b8","infoHashBuffer":{"type":"Buffer","data":[199,148,255,182,177,188,224,106,166,182,171,26,84,15,16,45,206,233,72,184]},"announce":[],"urlList":[]}}